<svg width="188" height="188" viewBox="0 0 188 188" fill="none" xmlns="http://www.w3.org/2000/svg">
<rect x="9" y="23" width="169" height="141" rx="14" fill="white"/>
<rect x="164" y="136" width="9.00001" height="141" transform="rotate(90 164 136)" fill="#FFC218"/>
<g filter="url(#filter0_d_107_389)">
<path d="M87.1818 85.0909C87.1818 92.7727 85.7045 99.2841 82.75 104.625C79.7955 109.966 75.7955 114.023 70.75 116.795C65.7273 119.568 60.0909 120.955 53.8409 120.955C47.5682 120.955 41.9205 119.557 36.8977 116.761C31.875 113.966 27.8864 109.909 24.9318 104.591C22 99.25 20.5341 92.75 20.5341 85.0909C20.5341 77.4091 22 70.8977 24.9318 65.5568C27.8864 60.2159 31.875 56.1591 36.8977 53.3864C41.9205 50.6136 47.5682 49.2273 53.8409 49.2273C60.0909 49.2273 65.7273 50.6136 70.75 53.3864C75.7955 56.1591 79.7955 60.2159 82.75 65.5568C85.7045 70.8977 87.1818 77.4091 87.1818 85.0909ZM69.9318 85.0909C69.9318 80.5455 69.2841 76.7045 67.9886 73.5682C66.7159 70.4318 64.875 68.0568 62.4659 66.4432C60.0795 64.8295 57.2045 64.0227 53.8409 64.0227C50.5 64.0227 47.625 64.8295 45.2159 66.4432C42.8068 68.0568 40.9545 70.4318 39.6591 73.5682C38.3864 76.7045 37.75 80.5455 37.75 85.0909C37.75 89.6364 38.3864 93.4773 39.6591 96.6136C40.9545 99.75 42.8068 102.125 45.2159 103.739C47.625 105.352 50.5 106.159 53.8409 106.159C57.2045 106.159 60.0795 105.352 62.4659 103.739C64.875 102.125 66.7159 99.75 67.9886 96.6136C69.2841 93.4773 69.9318 89.6364 69.9318 85.0909ZM92.9408 52.3636H105.325L126.858 104.94H127.651L149.183 52.3636H161.568V120H151.858V71.0561H151.231L131.283 119.901H123.225L103.278 71.0231H102.65V120H92.9408V52.3636Z" fill="url(#paint0_linear_107_389)"/>
</g>
<defs>
<filter id="filter0_d_107_389" x="16.5342" y="49.2271" width="149.034" height="79.7275" filterUnits="userSpaceOnUse" color-interpolation-filters="sRGB">
<feFlood flood-opacity="0" result="BackgroundImageFix"/>
<feColorMatrix in="SourceAlpha" type="matrix" values="0 0 0 0 0 0 0 0 0 0 0 0 0 0 0 0 0 0 127 0" result="hardAlpha"/>
<feOffset dy="4"/>
<feGaussianBlur stdDeviation="2"/>
<feComposite in2="hardAlpha" operator="out"/>
<feColorMatrix type="matrix" values="0 0 0 0 0 0 0 0 0 0 0 0 0 0 0 0 0 0 0.25 0"/>
<feBlend mode="normal" in2="BackgroundImageFix" result="effect1_dropShadow_107_389"/>
<feBlend mode="normal" in="SourceGraphic" in2="effect1_dropShadow_107_389" result="shape"/>
</filter>
<linearGradient id="paint0_linear_107_389" x1="125.5" y1="-3" x2="154.388" y2="110.588" gradientUnits="userSpaceOnUse">
<stop offset="0.445451" stop-color="#01569B"/>
<stop offset="0.8125" stop-color="#7C2098"/>
</linearGradient>
</defs>
</svg>
