<?xml version="1.0" standalone="no"?>
<!DOCTYPE svg PUBLIC "-//W3C//DTD SVG 20010904//EN"
 "http://www.w3.org/TR/2001/REC-SVG-20010904/DTD/svg10.dtd">
<svg version="1.0" xmlns="http://www.w3.org/2000/svg"
 width="700.000000pt" height="700.000000pt" viewBox="0 0 700.000000 700.000000"
 preserveAspectRatio="xMidYMid meet">
<metadata>
Created by potrace 1.14, written by Peter Selinger 2001-2017
</metadata>
<g transform="translate(0.000000,700.000000) scale(0.100000,-0.100000)"
fill="#000000" stroke="none">
<path d="M1816 5159 c-509 -70 -882 -405 -1007 -903 -12 -45 -22 -88 -23 -96
-1 -9 -5 -20 -8 -25 -13 -21 -38 -178 -49 -308 -21 -231 11 -502 83 -706 78
-224 222 -425 396 -556 225 -170 497 -257 797 -257 509 1 922 245 1134 670
103 204 160 504 148 771 -6 152 -36 349 -49 329 -5 -8 -6 -3 -2 14 3 15 2 33
-2 40 -4 7 -9 19 -9 28 -5 42 -60 225 -90 294 -158 365 -453 603 -860 691 -85
19 -364 28 -459 14z m306 -750 c150 -31 275 -132 346 -279 46 -95 65 -165 82
-290 12 -87 10 -361 -2 -354 -4 2 -6 -9 -6 -25 1 -41 -64 -167 -119 -230 -105
-120 -238 -176 -418 -175 -177 0 -285 42 -396 153 -128 129 -169 269 -156 541
17 358 168 595 420 656 66 16 181 17 249 3z m808 -1532 c0 -2 -10 -12 -22 -23
l-23 -19 19 23 c18 21 26 27 26 19z m-1795 -47 c21 -22 37 -40 34 -40 -3 0
-23 18 -44 40 -21 22 -37 40 -34 40 3 0 23 -18 44 -40z m1745 -3 c0 -2 -12
-14 -27 -28 l-28 -24 24 28 c23 25 31 32 31 24z"/>
<path d="M3460 4967 c0 -60 -5 -94 -17 -118 -17 -32 -18 -110 -18 -1209 0
-1167 0 -1175 21 -1210 29 -50 73 -76 142 -84 129 -15 215 13 256 84 20 34 21
52 26 700 5 663 8 710 39 710 17 0 52 -49 85 -120 18 -41 138 -331 266 -645
128 -313 240 -586 250 -605 47 -91 105 -123 230 -123 122 0 180 33 228 129 11
22 116 274 232 560 117 285 234 570 261 633 46 109 90 181 109 181 33 0 35
-41 40 -715 5 -653 6 -671 26 -705 41 -71 127 -99 256 -84 69 8 113 34 142 84
21 35 21 43 21 1210 0 1099 -1 1177 -17 1209 -13 24 -18 58 -18 118 l0 83
-236 -2 -236 -3 -390 -955 c-215 -525 -393 -957 -394 -959 -2 -2 -14 -5 -26
-6 -21 -2 -49 62 -418 961 l-394 964 -233 0 -233 0 0 -83z"/>
<path d="M857 1933 c-4 -3 -7 -80 -7 -170 l0 -163 2630 0 2630 0 0 170 0 170
-2623 0 c-1443 0 -2627 -3 -2630 -7z"/>
</g>
</svg>
